<svg xmlns="http://www.w3.org/2000/svg" width="32" height="32"><g transform="translate(134.293 -1088.139)"><path style="isolation:auto;mix-blend-mode:normal" fill="#25b39e" d="M-131.293 1093.139v24h26v-24h-26z" color="#000" overflow="visible"/><path style="line-height:normal;text-indent:0;text-align:start;text-decoration-line:none;text-decoration-style:solid;text-decoration-color:#000;text-transform:none;block-progression:tb;isolation:auto;mix-blend-mode:normal" fill="#2b4255" d="M-131.793 1090.139a.5.5 0 0 0-.5.5v27a.5.5 0 0 0 .5.5h27a.5.5 0 0 0 .5-.5v-27a.5.5 0 0 0-.5-.5zm.5 3h26v24h-26z" color="#000" font-family="sans-serif" font-weight="400" overflow="visible"/><circle style="isolation:auto;mix-blend-mode:normal" cx="-129.793" cy="1091.639" r=".5" fill="#f8b74e" fill-opacity=".976" color="#000" overflow="visible"/><circle cx="-127.793" cy="1091.639" r=".5" fill="#25b39e" color="#000" overflow="visible" style="isolation:auto;mix-blend-mode:normal"/><circle style="isolation:auto;mix-blend-mode:normal" cx="-125.793" cy="1091.639" r=".5" fill="#f05542" color="#000" overflow="visible"/><circle cx="-128.793" cy="1095.639" r=".5" fill="#2b4255" color="#000" overflow="visible" style="isolation:auto;mix-blend-mode:normal"/><circle style="isolation:auto;mix-blend-mode:normal" cx="-128.793" cy="1097.639" r=".5" fill="#2b4255" color="#000" overflow="visible"/><circle style="isolation:auto;mix-blend-mode:normal" cx="-128.793" cy="1099.639" r=".5" fill="#2b4255" color="#000" overflow="visible"/><circle cx="-128.793" cy="1101.639" r=".5" fill="#2b4255" color="#000" overflow="visible" style="isolation:auto;mix-blend-mode:normal"/><circle style="isolation:auto;mix-blend-mode:normal" cx="-128.793" cy="1103.639" r=".5" fill="#2b4255" color="#000" overflow="visible"/><circle cx="-128.793" cy="1105.639" r=".5" fill="#2b4255" color="#000" overflow="visible" style="isolation:auto;mix-blend-mode:normal"/><circle cx="-128.793" cy="1107.639" r=".5" fill="#2b4255" color="#000" overflow="visible" style="isolation:auto;mix-blend-mode:normal"/><circle style="isolation:auto;mix-blend-mode:normal" cx="-128.793" cy="1109.639" r=".5" fill="#2b4255" color="#000" overflow="visible"/><circle cx="-128.793" cy="1111.639" r=".5" fill="#2b4255" color="#000" overflow="visible" style="isolation:auto;mix-blend-mode:normal"/><circle style="isolation:auto;mix-blend-mode:normal" cx="-128.793" cy="1113.639" r=".5" fill="#2b4255" color="#000" overflow="visible"/><path fill="none" stroke="#f8b74e" stroke-opacity=".98" d="M-126.293 1095.639h5"/><path fill="none" stroke="#f05542" d="M-120.293 1095.639h2"/><path fill="none" stroke="#2b4255" d="M-117.293 1095.639h10"/><path fill="none" stroke="#f05542" d="M-126.293 1097.639h1"/><path fill="none" stroke="#2b4255" d="M-124.293 1097.639h8"/><path fill="none" stroke="#f05542" d="M-115.293 1097.639h1"/><path fill="none" stroke="#2b4255" d="M-113.293 1097.639h4m-17 2h8"/><path fill="none" stroke="#f05542" d="M-126.293 1101.639h2"/><path fill="none" stroke="#2b4255" d="M-123.293 1101.639h7"/><path fill="none" stroke="#f8b74e" stroke-opacity=".98" d="M-122.293 1103.639h4"/><path fill="none" stroke="#2b4255" d="M-122.293 1105.639h6m1 0h1m-8 2h6m1 0h1"/><path fill="none" stroke="#f8b74e" stroke-opacity=".98" d="M-122.293 1109.639h2"/><path fill="none" stroke="#2b4255" d="M-126.293 1111.639h8"/><path fill="none" stroke="#f8b74e" stroke-opacity=".98" d="M-126.293 1113.639h5"/><path fill="none" stroke="#2b4255" d="M-120.293 1113.639h8"/><path fill="none" stroke="#f05542" d="M-117.293 1111.639h2"/></g></svg>